<svg width="1512" height="521" viewBox="0 0 1512 521" fill="none" xmlns="http://www.w3.org/2000/svg">
<mask id="mask0_15_575" style="mask-type:alpha" maskUnits="userSpaceOnUse" x="0" y="0" width="1512" height="521">
<rect width="1512" height="521" fill="#D9D9D9"/>
</mask>
<g mask="url(#mask0_15_575)">
<g filter="url(#filter0_f_15_575)">
<path d="M1052.35 1015.19C920.337 1063.62 720.1 1040.64 664.67 925.307C609.24 809.969 734.246 540.79 866.26 492.362C998.275 443.934 1135.59 603.326 1191.02 718.664C1246.45 834.002 1184.37 966.761 1052.35 1015.19Z" fill="#0582C9"/>
</g>
<g opacity="0.8" filter="url(#filter1_f_15_575)">
<path d="M539.064 990.756C360.159 948.874 275.451 810.96 317.132 675.053C358.814 539.146 609.819 455.518 788.724 497.4C967.629 539.281 947.512 702.166 905.831 838.072C864.15 973.979 717.969 1032.64 539.064 990.756Z" fill="#03E2D2"/>
</g>
</g>
<defs>
<filter id="filter0_f_15_575" x="499.188" y="331.45" width="864.114" height="859.611" filterUnits="userSpaceOnUse" color-interpolation-filters="sRGB">
<feFlood flood-opacity="0" result="BackgroundImageFix"/>
<feBlend mode="normal" in="SourceGraphic" in2="BackgroundImageFix" result="shape"/>
<feGaussianBlur stdDeviation="76" result="effect1_foregroundBlur_15_575"/>
</filter>
<filter id="filter1_f_15_575" x="106.674" y="286.55" width="1027.6" height="917.509" filterUnits="userSpaceOnUse" color-interpolation-filters="sRGB">
<feFlood flood-opacity="0" result="BackgroundImageFix"/>
<feBlend mode="normal" in="SourceGraphic" in2="BackgroundImageFix" result="shape"/>
<feGaussianBlur stdDeviation="100" result="effect1_foregroundBlur_15_575"/>
</filter>
</defs>
</svg>
